<svg id="visual" viewBox="0 0 540 960" width="540" height="960" xmlns="http://www.w3.org/2000/svg" xmlns:xlink="http://www.w3.org/1999/xlink" version="1.1"><rect x="0" y="0" width="540" height="960" fill="#FCAF3C"></rect><g transform="translate(230.3047746430241 446.405245868044)"><path d="M350.6 -395.6C454.3 -330.7 538.3 -220.2 554.7 -101.6C571.1 17 519.8 143.8 440.1 228.1C360.4 312.5 252.4 354.5 135.8 415.1C19.2 475.7 -105.8 555 -204.9 532.3C-304 509.5 -377.2 384.8 -424.5 263.9C-471.9 143.1 -493.5 26.1 -466.7 -74.8C-440 -175.7 -364.9 -260.6 -279.1 -328.6C-193.3 -396.7 -96.6 -447.8 13.4 -463.8C123.4 -479.7 246.8 -460.5 350.6 -395.6" fill="#FFFFFF"></path></g></svg>