<svg id="visual" viewBox="0 0 540 960" width="540" height="960" xmlns="http://www.w3.org/2000/svg" xmlns:xlink="http://www.w3.org/1999/xlink" version="1.1"><rect x="0" y="0" width="540" height="960" fill="#FFFFFF"></rect><defs><linearGradient id="grad1_0" x1="0%" y1="100%" x2="100%" y2="0%"><stop offset="30%" stop-color="#ffffff" stop-opacity="1"></stop><stop offset="70%" stop-color="#ffffff" stop-opacity="1"></stop></linearGradient></defs><defs><linearGradient id="grad2_0" x1="0%" y1="100%" x2="100%" y2="0%"><stop offset="30%" stop-color="#ffffff" stop-opacity="1"></stop><stop offset="70%" stop-color="#ffffff" stop-opacity="1"></stop></linearGradient></defs><g transform="translate(540, 960)"><path d="M-297 0C-300.7 -46.7 -304.4 -93.4 -274.4 -113.7C-244.3 -134 -180.5 -127.9 -150.6 -150.6C-120.7 -173.3 -124.7 -224.9 -105.2 -254.1C-85.8 -283.3 -42.9 -290.1 0 -297L0 0Z" fill="#FCAF3C"></path></g><g transform="translate(0, 0)"><path d="M297 0C294.3 39.7 291.5 79.3 274.4 113.7C257.3 148 225.7 177 193 193C160.4 209.1 126.5 212.1 94.1 227.3C61.8 242.4 30.9 269.7 0 297L0 0Z" fill="#FCAF3C"></path></g></svg>