<svg id="visual" viewBox="0 0 540 960" width="540" height="960" xmlns="http://www.w3.org/2000/svg" xmlns:xlink="http://www.w3.org/1999/xlink" version="1.1"><rect x="0" y="0" width="540" height="960" fill="#FCAF3C"></rect><g transform="translate(140.83109464118183 498.96392195698826)"><path d="M396.1 -642.3C499.8 -626.3 560.8 -492.6 612.2 -366C663.5 -239.3 705.3 -119.7 653.7 -29.8C602.2 60.2 457.4 120.3 385.3 211C313.1 301.6 313.5 422.7 261.4 503.8C209.3 584.9 104.7 626 17 596.5C-70.7 567.1 -141.3 467.1 -178.1 377.2C-214.9 287.3 -217.9 207.4 -241.1 146.2C-264.2 85 -307.6 42.5 -352.5 -25.9C-397.4 -94.3 -443.8 -188.7 -403.6 -220.3C-363.3 -252 -236.5 -221 -154.8 -249.7C-73.1 -278.3 -36.6 -366.7 54.8 -461.7C146.2 -556.6 292.5 -658.3 396.1 -642.3" fill="#EFF3F2"></path></g></svg>