<svg id="visual" viewBox="0 0 540 960" width="540" height="960" xmlns="http://www.w3.org/2000/svg" xmlns:xlink="http://www.w3.org/1999/xlink" version="1.1"><rect x="0" y="0" width="540" height="960" fill="#EFF3F2"></rect><path d="M0 96L18 100.5C36 105 72 114 108 117.8C144 121.7 180 120.3 216 117.3C252 114.3 288 109.7 324 99.8C360 90 396 75 432 73.5C468 72 504 84 522 90L540 96L540 0L522 0C504 0 468 0 432 0C396 0 360 0 324 0C288 0 252 0 216 0C180 0 144 0 108 0C72 0 36 0 18 0L0 0Z" fill="#46D018" stroke-linecap="round" stroke-linejoin="miter"></path></svg>