<svg id="visual" viewBox="0 0 540 960" width="540" height="960" xmlns="http://www.w3.org/2000/svg" xmlns:xlink="http://www.w3.org/1999/xlink" version="1.1"><rect x="0" y="0" width="540" height="960" fill="#EFF3F2"></rect><path d="M0 85L22.5 82C45 79 90 73 135 74C180 75 225 83 270 87.3C315 91.7 360 92.3 405 88.2C450 84 495 75 517.5 70.5L540 66L540 0L517.5 0C495 0 450 0 405 0C360 0 315 0 270 0C225 0 180 0 135 0C90 0 45 0 22.5 0L0 0Z" fill="#46D018" stroke-linecap="round" stroke-linejoin="miter"></path></svg>