<?xml version="1.0" standalone="no"?><svg xmlns="http://www.w3.org/2000/svg" viewBox="0 0 1440 320"><path fill="#ffd700" fill-opacity="1" d="M0,224L30,208C60,192,120,160,180,165.3C240,171,300,213,360,224C420,235,480,213,540,202.7C600,192,660,192,720,213.3C780,235,840,277,900,277.3C960,277,1020,235,1080,181.3C1140,128,1200,64,1260,53.3C1320,43,1380,85,1410,106.7L1440,128L1440,0L1410,0C1380,0,1320,0,1260,0C1200,0,1140,0,1080,0C1020,0,960,0,900,0C840,0,780,0,720,0C660,0,600,0,540,0C480,0,420,0,360,0C300,0,240,0,180,0C120,0,60,0,30,0L0,0Z"></path></svg>